<svg width="25" height="29" viewBox="0 0 25 29" fill="none" xmlns="http://www.w3.org/2000/svg">
<path d="M6.48963 0.42604C7.46008 0.75352 8.383 1.20781 9.23442 1.77712C10.4376 1.46915 11.675 1.31465 12.917 1.31729C14.1996 1.31729 15.437 1.47746 16.5969 1.77583C17.448 1.20707 18.3705 0.753219 19.3404 0.42604C20.2407 0.119915 21.5233 -0.376085 22.2854 0.467373C22.8021 1.04087 22.9313 2.00187 23.023 2.73554C23.1263 3.55446 23.1508 4.62137 22.8796 5.68054C23.9168 7.02 24.542 8.61779 24.542 10.359C24.542 12.9965 23.1134 15.2867 20.9989 16.8728C19.9808 17.6258 18.8523 18.2166 17.6535 18.6243C17.9299 19.2572 18.0836 19.9573 18.0836 20.6923V24.5673C18.0836 24.9099 17.9475 25.2384 17.7053 25.4806C17.4631 25.7229 17.1345 25.859 16.792 25.859H9.04196C8.69939 25.859 8.37085 25.7229 8.12862 25.4806C7.88638 25.2384 7.7503 24.9099 7.7503 24.5673V23.2872C6.51675 23.4384 5.48213 23.304 4.6025 22.9307C3.68284 22.5407 3.04217 21.9362 2.56038 21.3575C2.10313 20.8098 1.60455 19.575 0.883796 19.3347C0.722823 19.2811 0.573983 19.1964 0.445776 19.0852C0.317568 18.9741 0.212503 18.8388 0.13658 18.6871C-0.0167546 18.3807 -0.0420812 18.0259 0.0661713 17.7008C0.174424 17.3757 0.407388 17.1069 0.713814 16.9536C1.02024 16.8002 1.37503 16.7749 1.70013 16.8832C2.56038 17.1699 3.12096 17.7899 3.50459 18.2885C4.12459 19.0893 4.62834 20.1356 5.61 20.5528C6.0143 20.7246 6.60717 20.837 7.53459 20.7104L7.7503 20.6665C7.75327 19.9636 7.89963 19.2687 8.18042 18.6243C6.98159 18.2166 5.85309 17.6258 4.835 16.8728C2.72055 15.2867 1.29196 12.9978 1.29196 10.359C1.29196 8.62037 1.91584 7.02387 2.95046 5.68571C2.67921 4.62654 2.70246 3.55704 2.8058 2.73683L2.81225 2.68775C2.90655 1.936 3.01634 1.05121 3.54334 0.467373C4.30542 -0.376085 5.58934 0.121207 6.48834 0.427332L6.48963 0.42604Z" fill="#C400FF"/>
</svg>
