<svg width="1920" height="1444" viewBox="0 0 1920 1444" fill="none" xmlns="http://www.w3.org/2000/svg">
<g opacity="0.03">
<line x1="272.302" y1="2.18557e-08" x2="272.302" y2="1049" stroke="white"/>
<line x1="622.302" y1="2.18557e-08" x2="622.302" y2="1049" stroke="white"/>
<line x1="972.302" y1="2.18557e-08" x2="972.302" y2="1049" stroke="white"/>
<line x1="1322.3" y1="2.18557e-08" x2="1322.3" y2="1049" stroke="white"/>
<line x1="1672.3" y1="2.18557e-08" x2="1672.3" y2="1049" stroke="white"/>
</g>
<g opacity="0.03">
<line x1="-44.5" y1="1443.5" x2="1004.5" y2="1443.5" stroke="white"/>
<line x1="-44.5" y1="1093.5" x2="1004.5" y2="1093.5" stroke="white"/>
<line x1="-44.5" y1="743.5" x2="1004.5" y2="743.5" stroke="white"/>
<line x1="-44.5" y1="393.5" x2="1004.5" y2="393.5" stroke="white"/>
<line x1="-44.5" y1="43.5002" x2="1004.5" y2="43.5003" stroke="white"/>
</g>
<g opacity="0.03">
<line x1="915.5" y1="1443.5" x2="1964.5" y2="1443.5" stroke="white"/>
<line x1="915.5" y1="1093.5" x2="1964.5" y2="1093.5" stroke="white"/>
<line x1="915.5" y1="743.5" x2="1964.5" y2="743.5" stroke="white"/>
<line x1="915.5" y1="393.5" x2="1964.5" y2="393.5" stroke="white"/>
<line x1="915.5" y1="43.5" x2="1964.5" y2="43.5" stroke="white"/>
</g>
</svg>
