<svg width="34" height="34" viewBox="0 0 34 34" fill="none" xmlns="http://www.w3.org/2000/svg">
<mask id="mask0_6_207" style="mask-type:luminance" maskUnits="userSpaceOnUse" x="1" y="1" width="32" height="31">
<path d="M6.98275 23.2029C4.41858 23.9721 2.83333 25.0346 2.83333 26.2083C2.83333 28.5558 9.17575 30.4583 17 30.4583C24.8242 30.4583 31.1667 28.5558 31.1667 26.2083C31.1667 25.0346 29.5807 23.9721 27.0172 23.2029" stroke="white" stroke-width="2" stroke-linecap="round" stroke-linejoin="round"/>
<path d="M17 24.7916C17 24.7916 26.2083 18.7736 26.2083 11.8163C26.2083 6.85517 22.0858 2.83325 17 2.83325C11.9142 2.83325 7.79166 6.85517 7.79166 11.8163C7.79166 18.7736 17 24.7916 17 24.7916Z" fill="white" stroke="white" stroke-width="2" stroke-linejoin="round"/>
<path d="M17 15.5833C17.9393 15.5833 18.8401 15.2102 19.5043 14.546C20.1685 13.8818 20.5417 12.981 20.5417 12.0417C20.5417 11.1024 20.1685 10.2015 19.5043 9.53733C18.8401 8.87314 17.9393 8.5 17 8.5C16.0607 8.5 15.1598 8.87314 14.4957 9.53733C13.8315 10.2015 13.4583 11.1024 13.4583 12.0417C13.4583 12.981 13.8315 13.8818 14.4957 14.546C15.1598 15.2102 16.0607 15.5833 17 15.5833Z" fill="black" stroke="black" stroke-width="2" stroke-linejoin="round"/>
</mask>
<g mask="url(#mask0_6_207)">
<path d="M0 0H34V34H0V0Z" fill="white"/>
</g>
</svg>
